<?xml version="1.0" standalone="no"?>
 <!DOCTYPE svg PUBLIC "-//W3C//DTD SVG 1.1//EN" 
 "http://www.w3.org/Graphics/SVG/1.1/DTD/svg11.dtd"> 
<svg xmlns="http://www.w3.org/2000/svg" version="1.1" 
    width="10.8382cm" height="6.60908cm" viewBox="0 0 42670 26020 ">
<title>SVG Picture created as softtag-brd.svg date 2016/10/31 00:02:55 </title>
  <desc>Picture generated by PCBNEW </desc>
<g style="fill:#000000; fill-opacity:1;stroke:#000000; stroke-opacity:1;
stroke-linecap:round; stroke-linejoin:round; "
 transform="translate(0 0) scale(1 1)">
</g>
<g style="fill:#000000; fill-opacity:0.0; 
stroke:#000000; stroke-width:-0.000393701; stroke-opacity:1; 
stroke-linecap:round; stroke-linejoin:round;">
</g>
<g style="fill:#840000; fill-opacity:0.0; 
stroke:#840000; stroke-width:-0.000393701; stroke-opacity:1; 
stroke-linecap:round; stroke-linejoin:round;">
</g>
<g style="fill:#840000; fill-opacity:0.0; 
stroke:#840000; stroke-width:0; stroke-opacity:1; 
stroke-linecap:round; stroke-linejoin:round;">
</g>
<g style="fill:#840000; fill-opacity:1.0; 
stroke:#840000; stroke-width:0; stroke-opacity:1; 
stroke-linecap:round; stroke-linejoin:round;">
<polyline style="fill-rule:evenodd;"
points="7942,18011
7942,18366
7746,18366
7746,18011
7942,18011
" /> 
<polyline style="fill-rule:evenodd;"
points="7352,18011
7352,18366
7155,18366
7155,18011
7352,18011
" /> 
<polyline style="fill-rule:evenodd;"
points="8553,17598
8061,17598
8061,17204
8553,17204
8553,17598
" /> 
<polyline style="fill-rule:evenodd;"
points="8553,18385
8061,18385
8061,17992
8553,17992
8553,18385
" /> 
<polyline style="fill-rule:evenodd;"
points="10000,17421
9370,17421
9370,16633
10000,16633
10000,17421
" /> 
<polyline style="fill-rule:evenodd;"
points="10000,18996
9370,18996
9370,18208
10000,18208
10000,18996
" /> 
<polyline style="fill-rule:evenodd;"
points="16240,15639
16240,16131
15846,16131
15846,15639
16240,15639
" /> 
<polyline style="fill-rule:evenodd;"
points="15452,15639
15452,16131
15059,16131
15059,15639
15452,15639
" /> 
<polyline style="fill-rule:evenodd;"
points="12736,15472
12736,16063
11555,16063
11555,15472
12736,15472
" /> 
<polyline style="fill-rule:evenodd;"
points="14310,15472
14310,16063
13129,16063
13129,15472
14310,15472
" /> 
<polyline style="fill-rule:evenodd;"
points="14527,12942
14527,12450
14921,12450
14921,12942
14527,12942
" /> 
<polyline style="fill-rule:evenodd;"
points="13740,12942
13740,12450
14133,12450
14133,12942
13740,12942
" /> 
<polyline style="fill-rule:evenodd;"
points="13720,16594
14350,16594
14350,17381
13720,17381
13720,16594
" /> 
<polyline style="fill-rule:evenodd;"
points="13720,18169
14350,18169
14350,18956
13720,18956
13720,18169
" /> 
<polyline style="fill-rule:evenodd;"
points="14940,18169
15570,18169
15570,18956
14940,18956
14940,18169
" /> 
<polyline style="fill-rule:evenodd;"
points="14940,16594
15570,16594
15570,17381
14940,17381
14940,16594
" /> 
<polyline style="fill-rule:evenodd;"
points="12381,12873
12696,12873
12696,13188
12381,13188
12381,12873
" /> 
<polyline style="fill-rule:evenodd;"
points="12381,13622
12696,13622
12696,13937
12381,13937
12381,13622
" /> 
<polyline style="fill-rule:evenodd;"
points="13168,13248
13483,13248
13483,13563
13168,13563
13168,13248
" /> 
<polyline style="fill-rule:evenodd;"
points="15885,13681
16200,13681
16200,13996
15885,13996
15885,13681
" /> 
<polyline style="fill-rule:evenodd;"
points="15098,14055
15413,14055
15413,14370
15098,14370
15098,14055
" /> 
<polyline style="fill-rule:evenodd;"
points="15098,13307
15413,13307
15413,13622
15098,13622
15098,13307
" /> 
<polyline style="fill-rule:evenodd;"
points="11717,10655
11037,10655
11037,9855
11717,9855
11717,10655
" /> 
</g>
<g style="fill:#840000; fill-opacity:1.0; 
stroke:#840000; stroke-width:680; stroke-opacity:1; 
stroke-linecap:round; stroke-linejoin:round;">
</g>
<g style="fill:#840000; fill-opacity:0.0; 
stroke:#840000; stroke-width:680; stroke-opacity:1; 
stroke-linecap:round; stroke-linejoin:round;">
<path d="M11377 11339
L11377 11219
" />
<path d="M11397 12402
L11397 12282
" />
<path d="M14232 8544
L14232 8424
" />
<path d="M15177 8544
L15177 8424
" />
<path d="M16082 8544
L16082 8424
" />
</g>
<g style="fill:#840000; fill-opacity:0.0; 
stroke:#840000; stroke-width:0; stroke-opacity:1; 
stroke-linecap:round; stroke-linejoin:round;">
</g>
<g style="fill:#840000; fill-opacity:1.0; 
stroke:#840000; stroke-width:0; stroke-opacity:1; 
stroke-linecap:round; stroke-linejoin:round;">
<polyline style="fill-rule:evenodd;"
points="12736,18050
12736,18365
12421,18365
12421,18050
12736,18050
" /> 
<polyline style="fill-rule:evenodd;"
points="12362,17263
12362,17578
12047,17578
12047,17263
12362,17263
" /> 
<polyline style="fill-rule:evenodd;"
points="13110,17263
13110,17578
12795,17578
12795,17263
13110,17263
" /> 
<polyline style="fill-rule:evenodd;"
points="12342,16456
12342,16968
12066,16968
12066,16456
12342,16456
" /> 
<polyline style="fill-rule:evenodd;"
points="13090,16456
13090,16968
12814,16968
12814,16456
13090,16456
" /> 
<polyline style="fill-rule:evenodd;"
points="15413,14724
15413,15236
15137,15236
15137,14724
15413,14724
" /> 
<polyline style="fill-rule:evenodd;"
points="16161,14724
16161,15236
15885,15236
15885,14724
16161,14724
" /> 
<polyline style="fill-rule:evenodd;"
points="13444,14409
13444,14921
13169,14921
13169,14409
13444,14409
" /> 
<polyline style="fill-rule:evenodd;"
points="12696,14409
12696,14921
12421,14921
12421,14409
12696,14409
" /> 
<polyline style="fill-rule:evenodd;"
points="16141,9862
16653,9862
16653,10137
16141,10137
16141,9862
" /> 
<polyline style="fill-rule:evenodd;"
points="16141,10610
16653,10610
16653,10885
16141,10885
16141,10610
" /> 
<polyline style="fill-rule:evenodd;"
points="16299,12421
16299,12933
16023,12933
16023,12421
16299,12421
" /> 
<polyline style="fill-rule:evenodd;"
points="15551,12421
15551,12933
15275,12933
15275,12421
15551,12421
" /> 
<polyline style="fill-rule:evenodd;"
points="12746,10450
12746,10214
13356,10214
13356,10450
12746,10450
" /> 
<polyline style="fill-rule:evenodd;"
points="12746,10950
12746,10714
13356,10714
13356,10950
12746,10950
" /> 
<polyline style="fill-rule:evenodd;"
points="12746,11450
12746,11214
13356,11214
13356,11450
12746,11450
" /> 
<polyline style="fill-rule:evenodd;"
points="12746,11950
12746,11714
13356,11714
13356,11950
12746,11950
" /> 
<polyline style="fill-rule:evenodd;"
points="14872,11950
14872,11714
15482,11714
15482,11950
14872,11950
" /> 
<polyline style="fill-rule:evenodd;"
points="14872,11450
14872,11214
15482,11214
15482,11450
14872,11450
" /> 
<polyline style="fill-rule:evenodd;"
points="14872,10950
14872,10714
15482,10714
15482,10950
14872,10950
" /> 
<polyline style="fill-rule:evenodd;"
points="14872,10450
14872,10214
15482,10214
15482,10450
14872,10450
" /> 
<polyline style="fill-rule:evenodd;"
points="11427,17559
10915,17559
10915,17283
11427,17283
11427,17559
" /> 
<polyline style="fill-rule:evenodd;"
points="11427,18307
10915,18307
10915,18031
11427,18031
11427,18307
" /> 
</g>
<g style="fill:#C2C2C2; fill-opacity:1.0; 
stroke:#C2C2C2; stroke-width:0; stroke-opacity:1; 
stroke-linecap:round; stroke-linejoin:round;">
<circle cx="7312.99" cy="17401.6" r="196.85" /> 
</g>
<g style="fill:#C2C2C2; fill-opacity:1.0; 
stroke:#C2C2C2; stroke-width:39.3701; stroke-opacity:1; 
stroke-linecap:round; stroke-linejoin:round;">
</g>
<g style="fill:#C2C2C2; fill-opacity:1.0; 
stroke:#C2C2C2; stroke-width:0; stroke-opacity:1; 
stroke-linecap:round; stroke-linejoin:round;">
<circle cx="4911.42" cy="17401.6" r="196.85" /> 
</g>
<g style="fill:#C2C2C2; fill-opacity:1.0; 
stroke:#C2C2C2; stroke-width:39.3701; stroke-opacity:1; 
stroke-linecap:round; stroke-linejoin:round;">
</g>
<g style="fill:#840000; fill-opacity:1.0; 
stroke:#840000; stroke-width:39.3701; stroke-opacity:1; 
stroke-linecap:round; stroke-linejoin:round;">
</g>
<g style="fill:#840000; fill-opacity:1.0; 
stroke:#840000; stroke-width:500; stroke-opacity:1; 
stroke-linecap:round; stroke-linejoin:round;">
</g>
<g style="fill:#840000; fill-opacity:0.0; 
stroke:#840000; stroke-width:500; stroke-opacity:1; 
stroke-linecap:round; stroke-linejoin:round;">
<path d="M7312 17401
L8307 17401
" />
<path d="M4921 15629
L4921 17391
" />
<path d="M4921 17391
L4911 17401
" />
<path d="M7037 21683
L7037 18572
" />
<path d="M7253 18188
L7037 18405
" />
<path d="M7037 18405
L7037 18572
" />
</g>
<g style="fill:#840000; fill-opacity:0.0; 
stroke:#840000; stroke-width:196.85; stroke-opacity:1; 
stroke-linecap:round; stroke-linejoin:round;">
<path d="M13887 9675
L13523 9311
" />
<path d="M13887 10564
L13887 9675
" />
<path d="M14153 12076
L14153 10830
" />
<path d="M14153 10830
L13887 10564
" />
<path d="M14724 12696
L14724 12647
" />
<path d="M14724 12647
L14153 12076
" />
</g>
<g style="fill:#840000; fill-opacity:0.0; 
stroke:#840000; stroke-width:314.961; stroke-opacity:1; 
stroke-linecap:round; stroke-linejoin:round;">
<path d="M14637 14980
L14637 17708
" />
<path d="M14637 17708
L15669 17708
" />
<path d="M15669 17708
L17421 15956
" />
<path d="M17421 15956
L17421 7933
" />
<path d="M10452 9153
L10452 13385
" />
<path d="M17421 7933
L16240 6751
" />
<path d="M16240 6751
L12854 6751
" />
<path d="M12854 6751
L10452 9153
" />
<path d="M10452 13385
L11934 14866
" />
<path d="M15177 10332
L15177 9389
" />
<path d="M15177 9389
L16082 8484
" />
<path d="M15394 7736
L16082 8424
" />
<path d="M16082 8424
L16082 8484
" />
<path d="M13917 7736
L15394 7736
" />
<path d="M13523 9311
L13523 8129
" />
<path d="M13523 8129
L13917 7736
" />
</g>
<g style="fill:#840000; fill-opacity:0.0; 
stroke:#840000; stroke-width:500; stroke-opacity:1; 
stroke-linecap:round; stroke-linejoin:round;">
<path d="M14724 12696
L14724 13442
" />
<path d="M14724 13442
L14702 13464
" />
<path d="M14702 13464
L14598 13464
" />
<path d="M15275 14980
L14637 14980
" />
<path d="M14598 13464
L15255 13464
" />
<path d="M14637 14980
L14350 14692
" />
<path d="M14350 14692
L14350 13712
" />
<path d="M14350 13712
L14598 13464
" />
<path d="M15255 15885
L15255 15000
" />
<path d="M15255 15000
L15275 14980
" />
</g>
<g style="fill:#840000; fill-opacity:0.0; 
stroke:#840000; stroke-width:314.961; stroke-opacity:1; 
stroke-linecap:round; stroke-linejoin:round;">
<path d="M15413 12677
L15413 13306
" />
<path d="M15413 13306
L15255 13464
" />
<path d="M12559 14665
L12146 15078
" />
<path d="M12539 13031
L12167 13031
" />
</g>
<g style="fill:#840000; fill-opacity:0.0; 
stroke:#840000; stroke-width:500; stroke-opacity:1; 
stroke-linecap:round; stroke-linejoin:round;">
<path d="M12167 13031
L11934 13264
" />
<path d="M11934 13264
L11934 14866
" />
<path d="M11934 14866
L12146 15078
" />
<path d="M12146 15767
L12146 15078
" />
<path d="M12204 16712
L12204 15826
" />
<path d="M12204 15826
L12146 15767
" />
<path d="M12204 17420
L12204 16712
" />
<path d="M11171 17421
L12204 17421
" />
<path d="M12204 17421
L12204 17420
" />
<path d="M11171 17421
L10078 17421
" />
<path d="M10078 17421
L9685 17027
" />
<path d="M8307 17401
L9311 17401
" />
<path d="M9311 17401
L9685 17027
" />
<path d="M4921 15629
L4921 4409
" />
<path d="M4921 4409
L6496 2834
" />
<path d="M35275 21909
L7263 21909
" />
<path d="M35826 23307
L6555 23307
" />
<path d="M35561 22608
L6919 22608
" />
<path d="M6496 2834
L35629 2834
" />
<path d="M35629 2834
L37204 4409
" />
<path d="M35078 4222
L35807 4950
" />
<path d="M37204 4409
L37204 21929
" />
<path d="M37204 21929
L35826 23307
" />
<path d="M5620 22372
L5620 4704
" />
<path d="M6555 23307
L5620 22372
" />
<path d="M5620 4704
L6801 3523
" />
<path d="M36505 4694
L36505 21663
" />
<path d="M35334 3523
L36505 4694
" />
<path d="M6801 3523
L35334 3523
" />
<path d="M36505 21663
L35561 22608
" />
<path d="M6919 22608
L6318 22007
" />
<path d="M6318 22007
L6318 5000
" />
<path d="M6318 5000
L7096 4222
" />
<path d="M7096 4222
L35078 4222
" />
<path d="M35807 21377
L35275 21909
" />
<path d="M35807 4950
L35807 21377
" />
<path d="M7263 21909
L7037 21683
" />
</g>
<g style="fill:#840000; fill-opacity:0.0; 
stroke:#840000; stroke-width:314.961; stroke-opacity:1; 
stroke-linecap:round; stroke-linejoin:round;">
<path d="M16023 14980
L16023 13857
" />
<path d="M16023 13857
L16042 13838
" />
<path d="M16043 15885
L16043 15000
" />
<path d="M16043 15000
L16023 14980
" />
<path d="M15255 16988
L15511 16988
" />
<path d="M15511 16988
L16043 16456
" />
<path d="M16043 16456
L16043 15885
" />
</g>
<g style="fill:#840000; fill-opacity:0.0; 
stroke:#840000; stroke-width:196.85; stroke-opacity:1; 
stroke-linecap:round; stroke-linejoin:round;">
<path d="M16042 13838
L16042 13484
" />
<path d="M15679 11332
L15177 11332
" />
<path d="M16042 13484
L15807 13248
" />
<path d="M15807 13248
L15807 11460
" />
<path d="M15807 11460
L15679 11332
" />
<path d="M13051 10332
L13265 10332
" />
<path d="M13265 10332
L13858 10925
" />
<path d="M13858 10925
L13858 12400
" />
<path d="M13858 12400
L13838 12420
" />
</g>
<g style="fill:#840000; fill-opacity:0.0; 
stroke:#840000; stroke-width:314.961; stroke-opacity:1; 
stroke-linecap:round; stroke-linejoin:round;">
<path d="M13051 7854
L13051 9899
" />
<path d="M16397 9547
L16870 9074
" />
<path d="M13641 7263
L13051 7854
" />
<path d="M16870 9074
L16870 8051
" />
<path d="M16870 8051
L16082 7263
" />
<path d="M16397 10000
L16397 9547
" />
<path d="M16082 7263
L13641 7263
" />
<path d="M13051 9899
L13051 10332
" />
<path d="M13051 10332
L11454 10332
" />
<path d="M11454 10332
L11377 10255
" />
<path d="M13937 12696
L13937 12518
" />
<path d="M13937 12518
L13838 12420
" />
</g>
<g style="fill:#840000; fill-opacity:0.0; 
stroke:#840000; stroke-width:500; stroke-opacity:1; 
stroke-linecap:round; stroke-linejoin:round;">
<path d="M13720 15767
L13720 14972
" />
<path d="M13720 14972
L13366 14618
" />
<path d="M13366 14618
L13366 14606
" />
<path d="M13366 14606
L13366 13445
" />
</g>
<g style="fill:#840000; fill-opacity:0.0; 
stroke:#840000; stroke-width:314.961; stroke-opacity:1; 
stroke-linecap:round; stroke-linejoin:round;">
<path d="M13838 12420
L13326 12933
" />
<path d="M13326 12933
L13326 13405
" />
</g>
<g style="fill:#840000; fill-opacity:0.0; 
stroke:#840000; stroke-width:500; stroke-opacity:1; 
stroke-linecap:round; stroke-linejoin:round;">
<path d="M14035 16988
L14035 16083
" />
<path d="M14035 16083
L13720 15767
" />
</g>
<g style="fill:#840000; fill-opacity:0.0; 
stroke:#840000; stroke-width:314.961; stroke-opacity:1; 
stroke-linecap:round; stroke-linejoin:round;">
<path d="M13051 11332
L11431 11332
" />
<path d="M11431 11332
L11377 11279
" />
<path d="M13051 11832
L11907 11832
" />
<path d="M11907 11832
L11397 12342
" />
</g>
<g style="fill:#840000; fill-opacity:0.0; 
stroke:#840000; stroke-width:196.85; stroke-opacity:1; 
stroke-linecap:round; stroke-linejoin:round;">
<path d="M15177 11832
L14990 11832
" />
<path d="M14232 10519
L14232 9081
" />
<path d="M14990 11832
L14438 11281
" />
<path d="M14438 11281
L14438 10726
" />
<path d="M14438 10726
L14232 10519
" />
<path d="M14232 9081
L14232 8484
" />
<path d="M15177 10832
L14935 10832
" />
<path d="M14935 10832
L14537 10435
" />
<path d="M14537 10435
L14537 9124
" />
<path d="M14537 9124
L15177 8484
" />
</g>
<g style="fill:#840000; fill-opacity:0.0; 
stroke:#840000; stroke-width:314.961; stroke-opacity:1; 
stroke-linecap:round; stroke-linejoin:round;">
<path d="M16161 12677
L16161 10984
" />
<path d="M16161 10984
L16397 10748
" />
<path d="M15177 10832
L16312 10832
" />
<path d="M16312 10832
L16397 10748
" />
</g>
<g style="fill:#840000; fill-opacity:0.0; 
stroke:#840000; stroke-width:196.85; stroke-opacity:1; 
stroke-linecap:round; stroke-linejoin:round;">
<path d="M12952 16712
L12952 16259
" />
<path d="M12952 16259
L12933 16240
" />
<path d="M12933 16240
L12933 12755
" />
<path d="M12933 12755
L13562 12125
" />
<path d="M13562 12125
L13562 11043
" />
<path d="M13562 11043
L13352 10832
" />
<path d="M13352 10832
L13051 10832
" />
<path d="M12952 17420
L12952 16712
" />
</g>
<g style="fill:#840000; fill-opacity:0.0; 
stroke:#840000; stroke-width:98.4252; stroke-opacity:1; 
stroke-linecap:round; stroke-linejoin:round;">
<path d="M7844 18188
L8307 18188
" />
</g>
<g style="fill:#840000; fill-opacity:0.0; 
stroke:#840000; stroke-width:500; stroke-opacity:1; 
stroke-linecap:round; stroke-linejoin:round;">
<path d="M14035 18562
L15255 18562
" />
<path d="M12578 18207
L13680 18207
" />
<path d="M13680 18207
L14035 18562
" />
<path d="M11171 18169
L12540 18169
" />
<path d="M12540 18169
L12578 18207
" />
<path d="M11171 18169
L10118 18169
" />
<path d="M10118 18169
L9685 18602
" />
<path d="M8307 18188
L9271 18188
" />
<path d="M9271 18188
L9685 18602
" />
<path d="M8307 18188
L7972 18188
" />
</g>
<g style="fill:#FFFFFF; fill-opacity:0.0; 
stroke:#FFFFFF; stroke-width:500; stroke-opacity:1; 
stroke-linecap:round; stroke-linejoin:round;">
</g>
<g style="fill:#FFFFFF; fill-opacity:1.0; 
stroke:#FFFFFF; stroke-width:0; stroke-opacity:1; 
stroke-linecap:round; stroke-linejoin:round;">
<circle cx="7312.99" cy="17401.6" r="118.11" /> 
</g>
<g style="fill:#FFFFFF; fill-opacity:1.0; 
stroke:#FFFFFF; stroke-width:39.3701; stroke-opacity:1; 
stroke-linecap:round; stroke-linejoin:round;">
</g>
<g style="fill:#FFFFFF; fill-opacity:1.0; 
stroke:#FFFFFF; stroke-width:0; stroke-opacity:1; 
stroke-linecap:round; stroke-linejoin:round;">
<circle cx="4911.42" cy="17401.6" r="118.11" /> 
</g>
<g style="fill:#FFFFFF; fill-opacity:1.0; 
stroke:#FFFFFF; stroke-width:39.3701; stroke-opacity:1; 
stroke-linecap:round; stroke-linejoin:round;">
</g>
<g style="fill:#000000; fill-opacity:1.0; 
stroke:#000000; stroke-width:39.3701; stroke-opacity:1; 
stroke-linecap:round; stroke-linejoin:round;">
</g>
<g style="fill:#008400; fill-opacity:1.0; 
stroke:#008400; stroke-width:39.3701; stroke-opacity:1; 
stroke-linecap:round; stroke-linejoin:round;">
</g>
<g style="fill:#008400; fill-opacity:0.0; 
stroke:#008400; stroke-width:39.3701; stroke-opacity:1; 
stroke-linecap:round; stroke-linejoin:round;">
</g>
<g style="fill:#008400; fill-opacity:0.0; 
stroke:#008400; stroke-width:118.11; stroke-opacity:1; 
stroke-linecap:round; stroke-linejoin:round;">
<path d="M40658 380
L40658 437
L40629 493
L40601 521
L40545 549
L40433 577
L40292 577
L40179 549
L40123 521
L40095 493
L40067 437
L40067 380
L40095 324
L40123 296
L40179 268
L40292 240
L40433 240
L40545 268
L40601 296
L40629 324
L40658 380
" />
<path d="M40123 830
L40095 858
L40067 830
L40095 802
L40123 830
L40067 830
" />
<path d="M40404 1196
L40433 1140
L40461 1111
L40517 1083
L40545 1083
L40601 1111
L40629 1140
L40658 1196
L40658 1308
L40629 1365
L40601 1393
L40545 1421
L40517 1421
L40461 1393
L40433 1365
L40404 1308
L40404 1196
L40376 1140
L40348 1111
L40292 1083
L40179 1083
L40123 1111
L40095 1140
L40067 1196
L40067 1308
L40095 1365
L40123 1393
L40179 1421
L40292 1421
L40348 1393
L40376 1365
L40404 1308
" />
<path d="M40658 1927
L40658 1814
L40629 1758
L40601 1730
L40517 1674
L40404 1646
L40179 1646
L40123 1674
L40095 1702
L40067 1758
L40067 1871
L40095 1927
L40123 1955
L40179 1983
L40320 1983
L40376 1955
L40404 1927
L40433 1871
L40433 1758
L40404 1702
L40376 1674
L40320 1646
" />
<path d="M40658 2349
L40658 2405
L40629 2461
L40601 2489
L40545 2517
L40433 2546
L40292 2546
L40179 2517
L40123 2489
L40095 2461
L40067 2405
L40067 2349
L40095 2293
L40123 2264
L40179 2236
L40292 2208
L40433 2208
L40545 2236
L40601 2264
L40629 2293
L40658 2349
" />
<path d="M40067 3249
L40461 3249
" />
<path d="M40404 3249
L40433 3277
L40461 3333
L40461 3417
L40433 3474
L40376 3502
L40067 3502
" />
<path d="M40376 3502
L40433 3530
L40461 3586
L40461 3670
L40433 3727
L40376 3755
L40067 3755
" />
<path d="M40067 4036
L40461 4036
" />
<path d="M40404 4036
L40433 4064
L40461 4120
L40461 4205
L40433 4261
L40376 4289
L40067 4289
" />
<path d="M40376 4289
L40433 4317
L40461 4374
L40461 4458
L40433 4514
L40376 4542
L40067 4542
" />
<path d="M39803 2236
L39803 2574
" />
<path d="M30696 2236
L40866 2236
" />
<path d="M30696 2574
L40866 2574
" />
<path d="M39803 2574
L39572 2131
" />
<path d="M39803 2574
L40034 2131
" />
<path d="M39803 2236
L39572 2679
" />
<path d="M39803 2236
L40034 2679
" />
<path d="M3755 25497
L3417 25494
" />
<path d="M3586 25496
L3591 24905
L3534 24989
L3477 25045
L3421 25072
" />
<path d="M4008 25443
L4036 25471
L4008 25499
L3980 25471
L4008 25443
L4008 25499
" />
<path d="M4265 24967
L4293 24939
L4350 24911
L4491 24912
L4547 24941
L4574 24969
L4602 25026
L4602 25082
L4573 25166
L4233 25501
L4598 25504
" />
<path d="M4800 24915
L5194 24918
L4936 25506
" />
<path d="M5531 24920
L5587 24921
L5643 24949
L5671 24978
L5699 25034
L5726 25147
L5725 25287
L5696 25400
L5667 25456
L5639 25484
L5583 25511
L5526 25511
L5470 25482
L5442 25454
L5415 25397
L5388 25285
L5389 25144
L5418 25032
L5446 24976
L5475 24948
L5531 24920
" />
<path d="M6426 25518
L6429 25124
" />
<path d="M6429 25180
L6457 25153
L6514 25125
L6598 25126
L6654 25154
L6682 25211
L6679 25520
" />
<path d="M6682 25211
L6710 25155
L6767 25127
L6851 25128
L6907 25156
L6935 25213
L6932 25522
" />
<path d="M7214 25524
L7217 25130
" />
<path d="M7216 25187
L7245 25159
L7301 25131
L7385 25132
L7441 25160
L7469 25217
L7467 25526
" />
<path d="M7469 25217
L7498 25161
L7554 25133
L7639 25134
L7695 25162
L7722 25219
L7720 25528
" />
<path d="M5339 24711
L5839 24715
" />
<path d="M5366 21314
L5331 25774
" />
<path d="M5866 21318
L5831 25778
" />
<path d="M5839 24715
L5394 24942
" />
<path d="M5839 24715
L5397 24480
" />
<path d="M5339 24711
L5781 24945
" />
<path d="M5339 24711
L5784 24483
" />
<path d="M34321 25747
L33984 25747
" />
<path d="M34152 25747
L34152 25156
L34096 25241
L34040 25297
L33984 25325
" />
<path d="M34574 25691
L34602 25719
L34574 25747
L34546 25719
L34574 25691
L34574 25747
" />
<path d="M34799 25156
L35193 25156
L34940 25747
" />
<path d="M35671 25353
L35671 25747
" />
<path d="M35530 25128
L35390 25550
L35755 25550
" />
<path d="M36093 25156
L36149 25156
L36205 25185
L36233 25213
L36262 25269
L36290 25381
L36290 25522
L36262 25634
L36233 25691
L36205 25719
L36149 25747
L36093 25747
L36037 25719
L36008 25691
L35980 25634
L35952 25522
L35952 25381
L35980 25269
L36008 25213
L36037 25185
L36093 25156
" />
<path d="M36993 25747
L36993 25353
" />
<path d="M36993 25410
L37021 25381
L37077 25353
L37161 25353
L37218 25381
L37246 25438
L37246 25747
" />
<path d="M37246 25438
L37274 25381
L37330 25353
L37415 25353
L37471 25381
L37499 25438
L37499 25747
" />
<path d="M37780 25747
L37780 25353
" />
<path d="M37780 25410
L37808 25381
L37865 25353
L37949 25353
L38005 25381
L38033 25438
L38033 25747
" />
<path d="M38033 25438
L38061 25381
L38118 25353
L38202 25353
L38258 25381
L38286 25438
L38286 25747
" />
<path d="M35807 24948
L36492 24948
" />
<path d="M35807 19515
L35807 26011
" />
<path d="M36492 19515
L36492 26011
" />
<path d="M36492 24948
L36048 25179
" />
<path d="M36492 24948
L36048 24717
" />
<path d="M35807 24948
L36250 25179
" />
<path d="M35807 24948
L36250 24717
" />
<path d="M2941 10933
L2941 10652
L2660 10624
L2688 10652
L2716 10708
L2716 10849
L2688 10905
L2660 10933
L2604 10961
L2463 10961
L2407 10933
L2379 10905
L2350 10849
L2350 10708
L2379 10652
L2407 10624
" />
<path d="M2941 11496
L2941 11214
L2660 11186
L2688 11214
L2716 11271
L2716 11411
L2688 11467
L2660 11496
L2604 11524
L2463 11524
L2407 11496
L2379 11467
L2350 11411
L2350 11271
L2379 11214
L2407 11186
" />
<path d="M2407 11777
L2379 11805
L2350 11777
L2379 11749
L2407 11777
L2350 11777
" />
<path d="M2941 12170
L2941 12227
L2913 12283
L2885 12311
L2829 12339
L2716 12367
L2575 12367
L2463 12339
L2407 12311
L2379 12283
L2350 12227
L2350 12170
L2379 12114
L2407 12086
L2463 12058
L2575 12030
L2716 12030
L2829 12058
L2885 12086
L2913 12114
L2941 12170
" />
<path d="M2941 12733
L2941 12789
L2913 12845
L2885 12874
L2829 12902
L2716 12930
L2575 12930
L2463 12902
L2407 12874
L2379 12845
L2350 12789
L2350 12733
L2379 12677
L2407 12649
L2463 12620
L2575 12592
L2716 12592
L2829 12620
L2885 12649
L2913 12677
L2941 12733
" />
<path d="M2941 13295
L2941 13352
L2913 13408
L2885 13436
L2829 13464
L2716 13492
L2575 13492
L2463 13464
L2407 13436
L2379 13408
L2350 13352
L2350 13295
L2379 13239
L2407 13211
L2463 13183
L2575 13155
L2716 13155
L2829 13183
L2885 13211
L2913 13239
L2941 13295
" />
<path d="M2350 14195
L2744 14195
" />
<path d="M2688 14195
L2716 14223
L2744 14280
L2744 14364
L2716 14420
L2660 14448
L2350 14448
" />
<path d="M2660 14448
L2716 14476
L2744 14533
L2744 14617
L2716 14673
L2660 14701
L2350 14701
" />
<path d="M2350 14983
L2744 14983
" />
<path d="M2688 14983
L2716 15011
L2744 15067
L2744 15151
L2716 15208
L2660 15236
L2350 15236
" />
<path d="M2660 15236
L2716 15264
L2744 15320
L2744 15404
L2716 15461
L2660 15489
L2350 15489
" />
<path d="M3149 2244
L3149 23897
" />
<path d="M4330 2244
L2086 2244
" />
<path d="M4330 23897
L2086 23897
" />
<path d="M3149 23897
L2918 23454
" />
<path d="M3149 23897
L3380 23454
" />
<path d="M3149 2244
L2918 2687
" />
<path d="M3149 2244
L3380 2687
" />
<path d="M18728 461
L18672 433
L18644 404
L18616 348
L18616 320
L18644 264
L18672 236
L18728 208
L18841 208
L18897 236
L18925 264
L18953 320
L18953 348
L18925 404
L18897 433
L18841 461
L18728 461
L18672 489
L18644 517
L18616 573
L18616 686
L18644 742
L18672 770
L18728 798
L18841 798
L18897 770
L18925 742
L18953 686
L18953 573
L18925 517
L18897 489
L18841 461
" />
<path d="M19488 208
L19206 208
L19178 489
L19206 461
L19263 433
L19403 433
L19460 461
L19488 489
L19516 545
L19516 686
L19488 742
L19460 770
L19403 798
L19263 798
L19206 770
L19178 742
" />
<path d="M19769 742
L19797 770
L19769 798
L19741 770
L19769 742
L19769 798
" />
<path d="M20163 208
L20219 208
L20275 236
L20303 264
L20331 320
L20359 433
L20359 573
L20331 686
L20303 742
L20275 770
L20219 798
L20163 798
L20106 770
L20078 742
L20050 686
L20022 573
L20022 433
L20050 320
L20078 264
L20106 236
L20163 208
" />
<path d="M20725 208
L20781 208
L20838 236
L20866 264
L20894 320
L20922 433
L20922 573
L20894 686
L20866 742
L20838 770
L20781 798
L20725 798
L20669 770
L20641 742
L20613 686
L20584 573
L20584 433
L20613 320
L20641 264
L20669 236
L20725 208
" />
<path d="M21287 208
L21344 208
L21400 236
L21428 264
L21456 320
L21484 433
L21484 573
L21456 686
L21428 742
L21400 770
L21344 798
L21287 798
L21231 770
L21203 742
L21175 686
L21147 573
L21147 433
L21175 320
L21203 264
L21231 236
L21287 208
" />
<path d="M22187 798
L22187 404
" />
<path d="M22187 461
L22215 433
L22272 404
L22356 404
L22412 433
L22440 489
L22440 798
" />
<path d="M22440 489
L22469 433
L22525 404
L22609 404
L22665 433
L22694 489
L22694 798
" />
<path d="M22975 798
L22975 404
" />
<path d="M22975 461
L23003 433
L23059 404
L23143 404
L23200 433
L23228 489
L23228 798
" />
<path d="M23228 489
L23256 433
L23312 404
L23397 404
L23453 433
L23481 489
L23481 798
" />
<path d="M4330 1062
L37795 1062
" />
<path d="M4330 1850
L4330 0
" />
<path d="M37795 1850
L37795 0
" />
<path d="M37795 1062
L37351 1293
" />
<path d="M37795 1062
L37351 832
" />
<path d="M4330 1062
L4774 1293
" />
<path d="M4330 1062
L4774 832
" />
</g>
<g style="fill:#000000; fill-opacity:0.0; 
stroke:#000000; stroke-width:118.11; stroke-opacity:1; 
stroke-linecap:round; stroke-linejoin:round;">
</g>
<g style="fill:#C2C200; fill-opacity:0.0; 
stroke:#C2C200; stroke-width:118.11; stroke-opacity:1; 
stroke-linecap:round; stroke-linejoin:round;">
</g>
<g style="fill:#C2C200; fill-opacity:0.0; 
stroke:#C2C200; stroke-width:78.7402; stroke-opacity:1; 
stroke-linecap:round; stroke-linejoin:round;">
<path d="M6299.21 2244.09 A1968.5 1968.5 0.0 0 0 4330.71 4212.6 " />
<path d="M4330.71 21929.1 A1968.5 1968.5 0.0 0 0 6299.21 23897.6 " />
<path d="M35826.8 23897.6 A1968.5 1968.5 0.0 0 0 37795.3 21929.1 " />
<path d="M37795.3 4212.6 A1968.5 1968.5 0.0 0 0 35826.8 2244.09 " />
</g>
<g style="fill:#C2C200; fill-opacity:0.0; 
stroke:#C2C200; stroke-width:59.0551; stroke-opacity:1; 
stroke-linecap:round; stroke-linejoin:round;">
<path d="M4330 21929
L4330 4212
" />
<path d="M35826 23897
L6299 23897
" />
<path d="M37795 4212
L37795 21929
" />
<path d="M6299 2244
L35826 2244
" />
</g> 
</svg>
