G04 #@! TF.FileFunction,Copper,L1,Top,Signal*
%FSLAX46Y46*%
G04 Gerber Fmt 4.6, Leading zero omitted, Abs format (unit mm)*
G04 Created by KiCad (PCBNEW 201609201018+7184~55~ubuntu14.04.1-) date Tue Sep 27 19:15:18 2016*
%MOMM*%
%LPD*%
G01*
G04 APERTURE LIST*
%ADD10C,0.100000*%
%ADD11R,0.500000X0.900000*%
%ADD12R,1.250000X1.000000*%
%ADD13R,1.600000X2.000000*%
%ADD14R,1.000000X1.250000*%
%ADD15R,2.999740X1.501140*%
%ADD16R,0.800100X0.800100*%
%ADD17O,1.727200X2.032000*%
%ADD18R,1.727200X2.032000*%
%ADD19R,0.700000X1.300000*%
%ADD20R,1.300000X0.700000*%
%ADD21R,1.550000X0.600000*%
%ADD22C,1.000000*%
%ADD23C,1.270000*%
%ADD24C,0.500000*%
%ADD25C,0.800000*%
%ADD26C,0.250000*%
G04 APERTURE END LIST*
D10*
D11*
X7425000Y14500000D03*
X8925000Y14500000D03*
D12*
X10100000Y14500000D03*
X10100000Y16500000D03*
D13*
X13600000Y13450000D03*
X13600000Y17450000D03*
D14*
X27750000Y20350000D03*
X29750000Y20350000D03*
D15*
X23848980Y20650000D03*
X19851020Y20650000D03*
D14*
X24400000Y28450000D03*
X26400000Y28450000D03*
D13*
X24650000Y13550000D03*
X24650000Y17550000D03*
X27750000Y17550000D03*
X27750000Y13550000D03*
D16*
X22848220Y26650000D03*
X20849240Y25700000D03*
X20849240Y27600000D03*
X27749240Y26500000D03*
X27749240Y24600000D03*
X29748220Y25550000D03*
D17*
X29850000Y39150000D03*
X27550000Y39150000D03*
X25150000Y39150000D03*
X17950000Y29350000D03*
X17900000Y32050000D03*
D18*
X17900000Y34650000D03*
D16*
X21900000Y16450760D03*
X20000000Y16450760D03*
X20950000Y14451780D03*
D19*
X21900000Y18250000D03*
X20000000Y18250000D03*
X29700000Y22650000D03*
X27800000Y22650000D03*
X20900000Y23450000D03*
X22800000Y23450000D03*
D20*
X30650000Y33400000D03*
X30650000Y35300000D03*
D19*
X28150000Y28500000D03*
X30050000Y28500000D03*
D21*
X27550000Y34455000D03*
X27550000Y33185000D03*
X27550000Y31915000D03*
X27550000Y30645000D03*
X22150000Y30645000D03*
X22150000Y31915000D03*
X22150000Y33185000D03*
X22150000Y34455000D03*
D20*
X17375000Y14550000D03*
X17375000Y16450000D03*
D22*
X7575000Y16500000D03*
X1475000Y16500000D03*
D23*
X7575000Y16500000D02*
X10100000Y16500000D01*
X1500008Y21000000D02*
X1500008Y16525008D01*
X1500008Y16525008D02*
X1475000Y16500000D01*
X6875000Y5625000D02*
X6875000Y13525000D01*
X7425000Y14500000D02*
X6875000Y13950000D01*
X6875000Y13950000D02*
X6875000Y13525000D01*
D24*
X24275000Y36125000D02*
X23350000Y37050000D01*
X24275000Y33865069D02*
X24275000Y36125000D01*
X24950000Y30025000D02*
X24950000Y33190069D01*
X24950000Y33190069D02*
X24275000Y33865069D01*
X26400000Y28450000D02*
X26400000Y28575000D01*
X26400000Y28575000D02*
X24950000Y30025000D01*
D25*
X26180000Y22650000D02*
X26180000Y15720000D01*
X26180000Y15720000D02*
X28800002Y15720000D01*
X28800002Y15720000D02*
X33250000Y20169998D01*
X33250000Y20169998D02*
X33250000Y40550000D01*
X15550000Y37450000D02*
X15550000Y26702040D01*
X33250000Y40550000D02*
X30250000Y43550000D01*
X30250000Y43550000D02*
X21650000Y43550000D01*
X21650000Y43550000D02*
X15550000Y37450000D01*
X15550000Y26702040D02*
X19314189Y22937851D01*
X27550000Y34455000D02*
X27550000Y36850000D01*
X27550000Y36850000D02*
X29850000Y39150000D01*
X28102400Y41050000D02*
X29850000Y39302400D01*
X29850000Y39302400D02*
X29850000Y39150000D01*
X24350000Y41050000D02*
X28102400Y41050000D01*
X23350000Y37050000D02*
X23350000Y40050000D01*
X23350000Y40050000D02*
X24350000Y41050000D01*
D23*
X26400000Y28450000D02*
X26400000Y26555000D01*
X26400000Y26555000D02*
X26345000Y26500000D01*
X26345000Y26500000D02*
X26079190Y26500000D01*
X27800000Y22650000D02*
X26180000Y22650000D01*
X26079190Y26500000D02*
X27749240Y26500000D01*
X26180000Y22650000D02*
X25450000Y23380000D01*
X25450000Y23380000D02*
X25450000Y25870810D01*
X25450000Y25870810D02*
X26079190Y26500000D01*
X27750000Y20350000D02*
X27750000Y22600000D01*
X27750000Y22600000D02*
X27800000Y22650000D01*
D25*
X28150000Y28500000D02*
X28150000Y26900760D01*
X28150000Y26900760D02*
X27749240Y26500000D01*
X20900000Y23450000D02*
X19851020Y22401020D01*
X20849240Y27600000D02*
X19906138Y27600000D01*
D23*
X19906138Y27600000D02*
X19314189Y27008051D01*
X19314189Y27008051D02*
X19314189Y22937851D01*
X19314189Y22937851D02*
X19851020Y22401020D01*
X19851020Y20650000D02*
X19851020Y22401020D01*
X20000000Y18250000D02*
X20000000Y20501020D01*
X20000000Y20501020D02*
X19851020Y20650000D01*
X20000000Y16450760D02*
X20000000Y18250000D01*
X17375000Y16450000D02*
X19999240Y16450000D01*
X19999240Y16450000D02*
X20000000Y16450760D01*
X17375000Y16450000D02*
X14600000Y16450000D01*
X14600000Y16450000D02*
X13600000Y17450000D01*
X10100000Y16500000D02*
X12650000Y16500000D01*
X12650000Y16500000D02*
X13600000Y17450000D01*
X1500008Y21000000D02*
X1500008Y49500008D01*
X1500008Y49500008D02*
X5500000Y53500000D01*
X78600000Y5050000D02*
X7450000Y5050000D01*
X80000000Y1500000D02*
X5650000Y1500000D01*
X79325000Y3275000D02*
X6575000Y3275000D01*
X5500000Y53500000D02*
X79500000Y53500000D01*
X79500000Y53500000D02*
X83500000Y49500000D01*
X78100000Y49975000D02*
X79950000Y48125000D01*
X83500000Y49500000D02*
X83500000Y5000000D01*
X83500000Y5000000D02*
X80000000Y1500000D01*
X3275000Y3875000D02*
X3275000Y48750000D01*
X5650000Y1500000D02*
X3275000Y3875000D01*
X3275000Y48750000D02*
X6275000Y51750000D01*
X81725000Y48775000D02*
X81725000Y5675000D01*
X78750000Y51750000D02*
X81725000Y48775000D01*
X6275000Y51750000D02*
X78750000Y51750000D01*
X81725000Y5675000D02*
X79325000Y3275000D01*
X6575000Y3275000D02*
X5050000Y4800000D01*
X5050000Y4800000D02*
X5050000Y48000000D01*
X5050000Y48000000D02*
X7025000Y49975000D01*
X7025000Y49975000D02*
X78100000Y49975000D01*
X79950000Y6400000D02*
X78600000Y5050000D01*
X79950000Y48125000D02*
X79950000Y6400000D01*
X7450000Y5050000D02*
X6875000Y5625000D01*
D25*
X29700000Y22650000D02*
X29700000Y25501780D01*
X29700000Y25501780D02*
X29748220Y25550000D01*
X29750000Y20350000D02*
X29750000Y22600000D01*
X29750000Y22600000D02*
X29700000Y22650000D01*
X27750000Y17550000D02*
X28400000Y17550000D01*
X28400000Y17550000D02*
X29750000Y18900000D01*
X29750000Y18900000D02*
X29750000Y20350000D01*
D24*
X29748220Y25550000D02*
X29748220Y26450050D01*
X28825000Y31915000D02*
X27550000Y31915000D01*
X29748220Y26450050D02*
X29150000Y27048270D01*
X29150000Y27048270D02*
X29150000Y31590000D01*
X29150000Y31590000D02*
X28825000Y31915000D01*
X22150000Y34455000D02*
X22695000Y34455000D01*
X22695000Y34455000D02*
X24200000Y32950000D01*
X24200000Y32950000D02*
X24200000Y29201830D01*
X24200000Y29201830D02*
X24150000Y29151830D01*
D25*
X22150000Y40750000D02*
X22150000Y35555000D01*
X30650000Y36450000D02*
X31850000Y37650000D01*
X23649989Y42249989D02*
X22150000Y40750000D01*
X31850000Y37650000D02*
X31850000Y40249998D01*
X31850000Y40249998D02*
X29850009Y42249989D01*
X30650000Y35300000D02*
X30650000Y36450000D01*
X29850009Y42249989D02*
X23649989Y42249989D01*
X22150000Y35555000D02*
X22150000Y34455000D01*
X22150000Y34455000D02*
X18095000Y34455000D01*
X18095000Y34455000D02*
X17900000Y34650000D01*
X24400000Y28450000D02*
X24400000Y28901830D01*
X24400000Y28901830D02*
X24150000Y29151830D01*
D23*
X23848980Y20650000D02*
X23848980Y22670570D01*
X23848980Y22670570D02*
X22950000Y23569550D01*
X22950000Y23569550D02*
X22950000Y23600000D01*
X22950000Y23600000D02*
X22950000Y26548220D01*
D25*
X24150000Y29151830D02*
X22848220Y27850050D01*
X22848220Y27850050D02*
X22848220Y26650000D01*
D23*
X24650000Y17550000D02*
X24650000Y19848980D01*
X24650000Y19848980D02*
X23848980Y20650000D01*
D25*
X22150000Y31915000D02*
X18035000Y31915000D01*
X18035000Y31915000D02*
X17900000Y32050000D01*
X22150000Y30645000D02*
X19245000Y30645000D01*
X19245000Y30645000D02*
X17950000Y29350000D01*
D24*
X27550000Y30645000D02*
X27075000Y30645000D01*
X25150000Y33980033D02*
X25150000Y37634000D01*
X27075000Y30645000D02*
X25675000Y32045000D01*
X25675000Y32045000D02*
X25675000Y33455033D01*
X25675000Y33455033D02*
X25150000Y33980033D01*
X25150000Y37634000D02*
X25150000Y39150000D01*
X27550000Y33185000D02*
X26934998Y33185000D01*
X26934998Y33185000D02*
X25925000Y34194998D01*
X25925000Y34194998D02*
X25925000Y37525000D01*
X25925000Y37525000D02*
X27550000Y39150000D01*
D25*
X30050000Y28500000D02*
X30050000Y32800000D01*
X30050000Y32800000D02*
X30650000Y33400000D01*
X27550000Y33185000D02*
X30435000Y33185000D01*
X30435000Y33185000D02*
X30650000Y33400000D01*
D24*
X21900000Y18250000D02*
X21900000Y19400000D01*
X21900000Y19400000D02*
X21850000Y19450000D01*
X21850000Y19450000D02*
X21850000Y28300000D01*
X21850000Y28300000D02*
X23450000Y29900000D01*
X23450000Y29900000D02*
X23450000Y32650000D01*
X23450000Y32650000D02*
X22915000Y33185000D01*
X22915000Y33185000D02*
X22150000Y33185000D01*
X21900000Y16450760D02*
X21900000Y18250000D01*
D26*
X8925000Y14500000D02*
X10100000Y14500000D01*
D23*
X24650000Y13550000D02*
X27750000Y13550000D01*
X20950000Y14451780D02*
X23748220Y14451780D01*
X23748220Y14451780D02*
X24650000Y13550000D01*
X17375000Y14550000D02*
X20851780Y14550000D01*
X20851780Y14550000D02*
X20950000Y14451780D01*
X17375000Y14550000D02*
X14700000Y14550000D01*
X14700000Y14550000D02*
X13600000Y13450000D01*
X10100000Y14500000D02*
X12550000Y14500000D01*
X12550000Y14500000D02*
X13600000Y13450000D01*
X10100000Y14500000D02*
X9250000Y14500000D01*
M02*
